<?xml version="1.0" encoding="UTF-8" standalone="no"?>
<!DOCTYPE svg PUBLIC "-//W3C//DTD SVG 1.1//EN" "http://www.w3.org/Graphics/SVG/1.1/DTD/svg11.dtd">
<svg xmlns="http://www.w3.org/2000/svg" version="1.1" viewBox="0.00 0.00 75.00 100.00">
<g stroke-width="2.00" fill="none" stroke-linecap="butt">
<path stroke="#8f98a8" vector-effect="non-scaling-stroke" d="
  M 66.61 98.40
  Q 74.15 94.99 74.17 86.40
  Q 74.23 64.84 74.18 35.13
  C 74.18 32.61 73.07 30.22 71.28 28.44
  Q 59.17 16.47 46.91 4.16
  C 45.06 2.30 42.93 0.71 40.34 0.70
  Q 28.12 0.68 12.20 0.70
  C 4.91 0.71 0.24 7.16 0.25 13.94
  Q 0.29 50.51 0.26 85.90
  Q 0.26 89.75 1.73 92.71
  Q 5.07 99.40 13.91 99.40
  Q 39.11 99.38 61.86 99.40
  Q 64.40 99.40 66.61 98.40"
/>
<path stroke="#8f98a8" vector-effect="non-scaling-stroke" d="
  M 48.08 34.61
  C 44.22 34.59 40.45 31.09 40.46 27.17
  Q 40.48 14.80 40.48 4.36
  A 0.61 0.61 0.0 0 0 39.87 3.75
  Q 26.34 3.84 13.17 3.74
  C 7.54 3.70 3.13 7.41 3.13 13.21
  Q 3.20 51.46 3.06 85.54
  C 3.04 91.19 6.19 96.25 11.93 96.25
  Q 37.78 96.25 62.47 96.24
  Q 64.45 96.24 66.30 95.32
  C 70.29 93.32 71.32 89.69 71.31 85.22
  Q 71.28 58.09 71.29 35.02
  Q 71.29 34.65 70.93 34.65
  Q 59.86 34.69 48.08 34.61"
/>
<path stroke="#8f98a8" vector-effect="non-scaling-stroke" d="
  M 43.29 6.47
  L 43.30 27.02
  A 4.48 4.47 90.0 0 0 47.77 31.50
  L 69.21 31.50
  Q 70.17 31.50 69.49 30.82
  L 44.61 5.93
  Q 43.29 4.61 43.29 6.47"
/>
<path stroke="#8f98a8" vector-effect="non-scaling-stroke" d="
  M 30.9000 14.4959
  A 1.45 1.45 0.0 0 0 29.4526 13.0434
  L 14.0926 13.0166
  A 1.45 1.45 0.0 0 0 12.6401 14.4641
  L 12.6400 14.5241
  A 1.45 1.45 0.0 0 0 14.0874 15.9766
  L 29.4474 16.0034
  A 1.45 1.45 0.0 0 0 30.8999 14.5559
  L 30.9000 14.4959"
/>
<path stroke="#8f98a8" vector-effect="non-scaling-stroke" d="
  M 30.87 26.68
  A 1.46 1.46 0.0 0 0 29.41 25.22
  L 14.15 25.22
  A 1.46 1.46 0.0 0 0 12.69 26.68
  L 12.69 26.84
  A 1.46 1.46 0.0 0 0 14.15 28.30
  L 29.41 28.30
  A 1.46 1.46 0.0 0 0 30.87 26.84
  L 30.87 26.68"
/>
<path stroke="#8f98a8" vector-effect="non-scaling-stroke" d="
  M 61.8313 49.7929
  A 5.76 5.76 0.0 0 0 56.0814 44.0229
  L 18.4414 43.9572
  A 5.76 5.76 0.0 0 0 12.6714 49.7071
  L 12.6487 62.7271
  A 5.76 5.76 0.0 0 0 18.3986 68.4971
  L 56.0386 68.5628
  A 5.76 5.76 0.0 0 0 61.8086 62.8129
  L 61.8313 49.7929"
/>
<path stroke="#8f98a8" vector-effect="non-scaling-stroke" d="
  M 61.79 85.47
  A 1.45 1.45 0.0 0 0 60.34 84.02
  L 44.98 84.02
  A 1.45 1.45 0.0 0 0 43.53 85.47
  L 43.53 85.53
  A 1.45 1.45 0.0 0 0 44.98 86.98
  L 60.34 86.98
  A 1.45 1.45 0.0 0 0 61.79 85.53
  L 61.79 85.47"
/>
<path stroke="#8f98a8" vector-effect="non-scaling-stroke" d="
  M 59.03 49.89
  A 2.89 2.89 0.0 0 0 56.14 47.00
  L 18.42 47.00
  A 2.89 2.89 0.0 0 0 15.53 49.89
  L 15.53 62.57
  A 2.89 2.89 0.0 0 0 18.42 65.46
  L 56.14 65.46
  A 2.89 2.89 0.0 0 0 59.03 62.57
  L 59.03 49.89"
/>
</g>
<path fill="#ffffff" d="
  M 0.00 0.00
  L 75.00 0.00
  L 75.00 100.00
  L 0.00 100.00
  L 0.00 0.00
  Z
  M 66.61 98.40
  Q 74.15 94.99 74.17 86.40
  Q 74.23 64.84 74.18 35.13
  C 74.18 32.61 73.07 30.22 71.28 28.44
  Q 59.17 16.47 46.91 4.16
  C 45.06 2.30 42.93 0.71 40.34 0.70
  Q 28.12 0.68 12.20 0.70
  C 4.91 0.71 0.24 7.16 0.25 13.94
  Q 0.29 50.51 0.26 85.90
  Q 0.26 89.75 1.73 92.71
  Q 5.07 99.40 13.91 99.40
  Q 39.11 99.38 61.86 99.40
  Q 64.40 99.40 66.61 98.40
  Z"
/>
<path fill="#0f253a" d="
  M 66.61 98.40
  Q 64.40 99.40 61.86 99.40
  Q 39.11 99.38 13.91 99.40
  Q 5.07 99.40 1.73 92.71
  Q 0.26 89.75 0.26 85.90
  Q 0.29 50.51 0.25 13.94
  C 0.24 7.16 4.91 0.71 12.20 0.70
  Q 28.12 0.68 40.34 0.70
  C 42.93 0.71 45.06 2.30 46.91 4.16
  Q 59.17 16.47 71.28 28.44
  C 73.07 30.22 74.18 32.61 74.18 35.13
  Q 74.23 64.84 74.17 86.40
  Q 74.15 94.99 66.61 98.40
  Z
  M 48.08 34.61
  C 44.22 34.59 40.45 31.09 40.46 27.17
  Q 40.48 14.80 40.48 4.36
  A 0.61 0.61 0.0 0 0 39.87 3.75
  Q 26.34 3.84 13.17 3.74
  C 7.54 3.70 3.13 7.41 3.13 13.21
  Q 3.20 51.46 3.06 85.54
  C 3.04 91.19 6.19 96.25 11.93 96.25
  Q 37.78 96.25 62.47 96.24
  Q 64.45 96.24 66.30 95.32
  C 70.29 93.32 71.32 89.69 71.31 85.22
  Q 71.28 58.09 71.29 35.02
  Q 71.29 34.65 70.93 34.65
  Q 59.86 34.69 48.08 34.61
  Z
  M 43.29 6.47
  L 43.30 27.02
  A 4.48 4.47 90.0 0 0 47.77 31.50
  L 69.21 31.50
  Q 70.17 31.50 69.49 30.82
  L 44.61 5.93
  Q 43.29 4.61 43.29 6.47
  Z"
/>
<path fill="#ffffff" d="
  M 40.46 27.17
  C 40.45 31.09 44.22 34.59 48.08 34.61
  Q 59.86 34.69 70.93 34.65
  Q 71.29 34.65 71.29 35.02
  Q 71.28 58.09 71.31 85.22
  C 71.32 89.69 70.29 93.32 66.30 95.32
  Q 64.45 96.24 62.47 96.24
  Q 37.78 96.25 11.93 96.25
  C 6.19 96.25 3.04 91.19 3.06 85.54
  Q 3.20 51.46 3.13 13.21
  C 3.13 7.41 7.54 3.70 13.17 3.74
  Q 26.34 3.84 39.87 3.75
  A 0.61 0.61 0.0 0 1 40.48 4.36
  Q 40.48 14.80 40.46 27.17
  Z
  M 30.9000 14.4959
  A 1.45 1.45 0.0 0 0 29.4526 13.0434
  L 14.0926 13.0166
  A 1.45 1.45 0.0 0 0 12.6401 14.4641
  L 12.6400 14.5241
  A 1.45 1.45 0.0 0 0 14.0874 15.9766
  L 29.4474 16.0034
  A 1.45 1.45 0.0 0 0 30.8999 14.5559
  L 30.9000 14.4959
  Z
  M 30.87 26.68
  A 1.46 1.46 0.0 0 0 29.41 25.22
  L 14.15 25.22
  A 1.46 1.46 0.0 0 0 12.69 26.68
  L 12.69 26.84
  A 1.46 1.46 0.0 0 0 14.15 28.30
  L 29.41 28.30
  A 1.46 1.46 0.0 0 0 30.87 26.84
  L 30.87 26.68
  Z
  M 61.8313 49.7929
  A 5.76 5.76 0.0 0 0 56.0814 44.0229
  L 18.4414 43.9572
  A 5.76 5.76 0.0 0 0 12.6714 49.7071
  L 12.6487 62.7271
  A 5.76 5.76 0.0 0 0 18.3986 68.4971
  L 56.0386 68.5628
  A 5.76 5.76 0.0 0 0 61.8086 62.8129
  L 61.8313 49.7929
  Z
  M 61.79 85.47
  A 1.45 1.45 0.0 0 0 60.34 84.02
  L 44.98 84.02
  A 1.45 1.45 0.0 0 0 43.53 85.47
  L 43.53 85.53
  A 1.45 1.45 0.0 0 0 44.98 86.98
  L 60.34 86.98
  A 1.45 1.45 0.0 0 0 61.79 85.53
  L 61.79 85.47
  Z"
/>
<path fill="#ffffff" d="
  M 44.61 5.93
  L 69.49 30.82
  Q 70.17 31.50 69.21 31.50
  L 47.77 31.50
  A 4.48 4.47 -90.0 0 1 43.30 27.02
  L 43.29 6.47
  Q 43.29 4.61 44.61 5.93
  Z"
/>
<rect fill="#0f253a" x="-9.13" y="-1.48" transform="translate(21.77,14.51) rotate(0.1)" width="18.26" height="2.96" rx="1.45"/>
<rect fill="#0f253a" x="12.69" y="25.22" width="18.18" height="3.08" rx="1.46"/>
<path fill="#0f253a" d="
  M 61.8086 62.8129
  A 5.76 5.76 0.0 0 1 56.0386 68.5628
  L 18.3986 68.4971
  A 5.76 5.76 0.0 0 1 12.6487 62.7271
  L 12.6714 49.7071
  A 5.76 5.76 0.0 0 1 18.4414 43.9572
  L 56.0814 44.0229
  A 5.76 5.76 0.0 0 1 61.8313 49.7929
  L 61.8086 62.8129
  Z
  M 59.03 49.89
  A 2.89 2.89 0.0 0 0 56.14 47.00
  L 18.42 47.00
  A 2.89 2.89 0.0 0 0 15.53 49.89
  L 15.53 62.57
  A 2.89 2.89 0.0 0 0 18.42 65.46
  L 56.14 65.46
  A 2.89 2.89 0.0 0 0 59.03 62.57
  L 59.03 49.89
  Z"
/>
<rect fill="#ffffff" x="15.53" y="47.00" width="43.50" height="18.46" rx="2.89"/>
<rect fill="#0f253a" x="43.53" y="84.02" width="18.26" height="2.96" rx="1.45"/>
</svg>
